<?xml version="1.0" standalone="yes"?>
<svg xmlns="http://www.w3.org/2000/svg" width="1950" height="397">
<path style="fill:#1b191b; stroke:none;" d="M0 0L0 397L1950 397L1950 0L0 0z"/>
<path style="fill:#252125; stroke:none;" d="M7 5L7 12L33 12L33 5L7 5M39 5L39 12L124 12L124 5L39 5z"/>
<path style="fill:#272327; stroke:none;" d="M130 5L130 12L215 12L215 5L130 5z"/>
<path style="fill:#252125; stroke:none;" d="M221 5L221 12L306 12L306 5L221 5M312 5L312 12L397 12L397 5L312 5M403 5L403 12L488 12L488 5L403 5z"/>
<path style="fill:#272327; stroke:none;" d="M494 5L494 12L579 12L579 5L494 5z"/>
<path style="fill:#252125; stroke:none;" d="M585 5L585 12L670 12L670 5L585 5M676 5L676 12L761 12L761 5L676 5M767 5L767 12L852 12L852 5L767 5M858 5L858 12L943 12L943 5L858 5M949 5L949 12L1034 12L1034 5L949 5M1040 5L1040 12L1125 12L1125 5L1040 5z"/>
<path style="fill:#272327; stroke:none;" d="M1131 5L1131 12L1216 12L1216 5L1131 5M1222 5L1222 12L1307 12L1307 5L1222 5z"/>
<path style="fill:#252125; stroke:none;" d="M1313 5L1313 12L1398 12L1398 5L1313 5z"/>
<path style="fill:#272327; stroke:none;" d="M1404 5L1404 12L1489 12L1489 5L1404 5z"/>
<path style="fill:#252125; stroke:none;" d="M1495 5L1495 12L1580 12L1580 5L1495 5M1586 5L1586 12L1671 12L1671 5L1586 5M1677 5L1677 12L1762 12L1762 5L1677 5M1768 5L1768 12L1853 12L1853 5L1768 5z"/>
<path style="fill:#272327; stroke:none;" d="M1859 5L1859 12L1944 12L1944 5L1859 5z"/>
<path style="fill:#211c20; stroke:none;" d="M7 12L7 31L33 31L33 12L7 12M39 12L39 31L124 31L124 12L39 12z"/>
<path style="fill:#241f23; stroke:none;" d="M130 12L130 31L215 31L215 12L130 12z"/>
<path style="fill:#211c20; stroke:none;" d="M221 12L221 31L306 31L306 12L221 12M312 12L312 31L397 31L397 12L312 12M403 12L403 31L488 31L488 12L403 12z"/>
<path style="fill:#241f23; stroke:none;" d="M494 12L494 31L579 31L579 12L494 12z"/>
<path style="fill:#211c20; stroke:none;" d="M585 12L585 31L670 31L670 12L585 12M676 12L676 31L761 31L761 12L676 12M767 12L767 31L852 31L852 12L767 12M858 12L858 31L943 31L943 12L858 12M949 12L949 31L1034 31L1034 12L949 12M1040 12L1040 31L1125 31L1125 12L1040 12z"/>
<path style="fill:#241f23; stroke:none;" d="M1131 12L1131 31L1216 31L1216 12L1131 12M1222 12L1222 31L1307 31L1307 12L1222 12z"/>
<path style="fill:#211c20; stroke:none;" d="M1313 12L1313 31L1398 31L1398 12L1313 12z"/>
<path style="fill:#241f23; stroke:none;" d="M1404 12L1404 31L1489 31L1489 12L1404 12z"/>
<path style="fill:#211c20; stroke:none;" d="M1495 12L1495 31L1580 31L1580 12L1495 12M1586 12L1586 31L1671 31L1671 12L1586 12M1677 12L1677 31L1762 31L1762 12L1677 12M1768 12L1768 31L1853 31L1853 12L1768 12z"/>
<path style="fill:#241f23; stroke:none;" d="M1859 12L1859 31L1944 31L1944 12L1859 12z"/>
<path style="fill:#272327; stroke:none;" d="M7 38L7 44L33 44L33 38L7 38z"/>
<path style="fill:#241f23; stroke:none;" d="M39 38L39 44L124 44L124 38L39 38M130 38L130 44L215 44L215 38L130 38z"/>
<path style="fill:#252125; stroke:none;" d="M221 38L221 44L306 44L306 38L221 38z"/>
<path style="fill:#241f23; stroke:none;" d="M312 38L312 44L397 44L397 38L312 38z"/>
<path style="fill:#272327; stroke:none;" d="M403 38L403 44L488 44L488 38L403 38M494 38L494 44L579 44L579 38L494 38z"/>
<path style="fill:#241f23; stroke:none;" d="M585 38L585 44L670 44L670 38L585 38z"/>
<path style="fill:#272327; stroke:none;" d="M676 38L676 44L761 44L761 38L676 38z"/>
<path style="fill:#241f23; stroke:none;" d="M767 38L767 44L852 44L852 38L767 38M858 38L858 44L943 44L943 38L858 38M949 38L949 44L1034 44L1034 38L949 38z"/>
<path style="fill:#272327; stroke:none;" d="M1040 38L1040 44L1125 44L1125 38L1040 38z"/>
<path style="fill:#241f23; stroke:none;" d="M1131 38L1131 44L1216 44L1216 38L1131 38M1222 38L1222 44L1307 44L1307 38L1222 38z"/>
<path style="fill:#252125; stroke:none;" d="M1313 38L1313 44L1398 44L1398 38L1313 38z"/>
<path style="fill:#241f23; stroke:none;" d="M1404 38L1404 44L1489 44L1489 38L1404 38z"/>
<path style="fill:#252125; stroke:none;" d="M1495 38L1495 44L1580 44L1580 38L1495 38M1586 38L1586 44L1671 44L1671 38L1586 38z"/>
<path style="fill:#272327; stroke:none;" d="M1677 38L1677 44L1762 44L1762 38L1677 38z"/>
<path style="fill:#241f23; stroke:none;" d="M1768 38L1768 44L1853 44L1853 38L1768 38M1859 38L1859 44L1944 44L1944 38L1859 38M7 44L7 64L33 64L33 44L7 44z"/>
<path style="fill:#211c20; stroke:none;" d="M39 44L39 64L124 64L124 44L39 44M130 44L130 64L215 64L215 44L130 44M221 44L221 64L306 64L306 44L221 44M312 44L312 64L397 64L397 44L312 44z"/>
<path style="fill:#241f23; stroke:none;" d="M403 44L403 64L488 64L488 44L403 44M494 44L494 64L579 64L579 44L494 44z"/>
<path style="fill:#211c20; stroke:none;" d="M585 44L585 64L670 64L670 44L585 44z"/>
<path style="fill:#241f23; stroke:none;" d="M676 44L676 64L761 64L761 44L676 44z"/>
<path style="fill:#211c20; stroke:none;" d="M767 44L767 64L852 64L852 44L767 44M858 44L858 64L943 64L943 44L858 44M949 44L949 64L1034 64L1034 44L949 44z"/>
<path style="fill:#241f23; stroke:none;" d="M1040 44L1040 64L1125 64L1125 44L1040 44z"/>
<path style="fill:#211c20; stroke:none;" d="M1131 44L1131 64L1216 64L1216 44L1131 44M1222 44L1222 64L1307 64L1307 44L1222 44M1313 44L1313 64L1398 64L1398 44L1313 44M1404 44L1404 64L1489 64L1489 44L1404 44M1495 44L1495 64L1580 64L1580 44L1495 44M1586 44L1586 64L1671 64L1671 44L1586 44z"/>
<path style="fill:#241f23; stroke:none;" d="M1677 44L1677 64L1762 64L1762 44L1677 44z"/>
<path style="fill:#211c20; stroke:none;" d="M1768 44L1768 64L1853 64L1853 44L1768 44M1859 44L1859 64L1944 64L1944 44L1859 44z"/>
<path style="fill:#272327; stroke:none;" d="M7 70L7 77L33 77L33 70L7 70z"/>
<path style="fill:#241f23; stroke:none;" d="M39 70L39 77L124 77L124 70L39 70z"/>
<path style="fill:#272327; stroke:none;" d="M130 70L130 77L215 77L215 70L130 70z"/>
<path style="fill:#252125; stroke:none;" d="M221 70L221 77L306 77L306 70L221 70M312 70L312 77L397 77L397 70L312 70z"/>
<path style="fill:#241f23; stroke:none;" d="M403 70L403 77L488 77L488 70L403 70z"/>
<path style="fill:#252125; stroke:none;" d="M494 70L494 77L579 77L579 70L494 70z"/>
<path style="fill:#241f23; stroke:none;" d="M585 70L585 77L670 77L670 70L585 70M676 70L676 77L761 77L761 70L676 70z"/>
<path style="fill:#272327; stroke:none;" d="M767 70L767 77L852 77L852 70L767 70M858 70L858 77L943 77L943 70L858 70z"/>
<path style="fill:#241f23; stroke:none;" d="M949 70L949 77L1034 77L1034 70L949 70M1040 70L1040 77L1125 77L1125 70L1040 70M1131 70L1131 77L1216 77L1216 70L1131 70z"/>
<path style="fill:#272327; stroke:none;" d="M1222 70L1222 77L1307 77L1307 70L1222 70M1313 70L1313 77L1398 77L1398 70L1313 70z"/>
<path style="fill:#252125; stroke:none;" d="M1404 70L1404 77L1489 77L1489 70L1404 70M1495 70L1495 77L1580 77L1580 70L1495 70z"/>
<path style="fill:#272327; stroke:none;" d="M1586 70L1586 77L1671 77L1671 70L1586 70z"/>
<path style="fill:#241f23; stroke:none;" d="M1677 70L1677 77L1762 77L1762 70L1677 70z"/>
<path style="fill:#272327; stroke:none;" d="M1768 70L1768 77L1853 77L1853 70L1768 70z"/>
<path style="fill:#241f23; stroke:none;" d="M1859 70L1859 77L1944 77L1944 70L1859 70M7 77L7 96L33 96L33 77L7 77z"/>
<path style="fill:#211c20; stroke:none;" d="M39 77L39 96L124 96L124 77L39 77z"/>
<path style="fill:#241f23; stroke:none;" d="M130 77L130 96L215 96L215 77L130 77z"/>
<path style="fill:#211c20; stroke:none;" d="M221 77L221 96L306 96L306 77L221 77M312 77L312 96L397 96L397 77L312 77M403 77L403 96L488 96L488 77L403 77M494 77L494 96L579 96L579 77L494 77M585 77L585 96L670 96L670 77L585 77M676 77L676 96L761 96L761 77L676 77z"/>
<path style="fill:#241f23; stroke:none;" d="M767 77L767 96L852 96L852 77L767 77M858 77L858 96L943 96L943 77L858 77z"/>
<path style="fill:#211c20; stroke:none;" d="M949 77L949 96L1034 96L1034 77L949 77M1040 77L1040 96L1125 96L1125 77L1040 77M1131 77L1131 96L1216 96L1216 77L1131 77z"/>
<path style="fill:#241f23; stroke:none;" d="M1222 77L1222 96L1307 96L1307 77L1222 77M1313 77L1313 96L1398 96L1398 77L1313 77z"/>
<path style="fill:#211c20; stroke:none;" d="M1404 77L1404 96L1489 96L1489 77L1404 77M1495 77L1495 96L1580 96L1580 77L1495 77z"/>
<path style="fill:#241f23; stroke:none;" d="M1586 77L1586 96L1671 96L1671 77L1586 77z"/>
<path style="fill:#211c20; stroke:none;" d="M1677 77L1677 96L1762 96L1762 77L1677 77z"/>
<path style="fill:#241f23; stroke:none;" d="M1768 77L1768 96L1853 96L1853 77L1768 77z"/>
<path style="fill:#211c20; stroke:none;" d="M1859 77L1859 96L1944 96L1944 77L1859 77z"/>
<path style="fill:#241f23; stroke:none;" d="M7 103L7 109L33 109L33 103L7 103z"/>
<path style="fill:#272327; stroke:none;" d="M39 103L39 109L124 109L124 103L39 103z"/>
<path style="fill:#252125; stroke:none;" d="M130 103L130 109L215 109L215 103L130 103z"/>
<path style="fill:#241f23; stroke:none;" d="M221 103L221 109L306 109L306 103L221 103z"/>
<path style="fill:#252125; stroke:none;" d="M312 103L312 109L397 109L397 103L312 103M403 103L403 109L488 109L488 103L403 103z"/>
<path style="fill:#241f23; stroke:none;" d="M494 103L494 109L579 109L579 103L494 103M585 103L585 109L670 109L670 103L585 103z"/>
<path style="fill:#272327; stroke:none;" d="M676 103L676 109L761 109L761 103L676 103z"/>
<path style="fill:#241f23; stroke:none;" d="M767 103L767 109L852 109L852 103L767 103M858 103L858 109L943 109L943 103L858 103z"/>
<path style="fill:#272327; stroke:none;" d="M949 103L949 109L1034 109L1034 103L949 103z"/>
<path style="fill:#241f23; stroke:none;" d="M1040 103L1040 109L1125 109L1125 103L1040 103z"/>
<path style="fill:#252125; stroke:none;" d="M1131 103L1131 109L1216 109L1216 103L1131 103z"/>
<path style="fill:#241f23; stroke:none;" d="M1222 103L1222 109L1307 109L1307 103L1222 103M1313 103L1313 109L1398 109L1398 103L1313 103z"/>
<path style="fill:#252125; stroke:none;" d="M1404 103L1404 109L1489 109L1489 103L1404 103z"/>
<path style="fill:#241f23; stroke:none;" d="M1495 103L1495 109L1580 109L1580 103L1495 103z"/>
<path style="fill:#252125; stroke:none;" d="M1586 103L1586 109L1671 109L1671 103L1586 103M1677 103L1677 109L1762 109L1762 103L1677 103M1768 103L1768 109L1853 109L1853 103L1768 103z"/>
<path style="fill:#272327; stroke:none;" d="M1859 103L1859 109L1944 109L1944 103L1859 103z"/>
<path style="fill:#211c20; stroke:none;" d="M7 109L7 129L33 129L33 109L7 109z"/>
<path style="fill:#241f23; stroke:none;" d="M39 109L39 129L124 129L124 109L39 109z"/>
<path style="fill:#211c20; stroke:none;" d="M130 109L130 129L215 129L215 109L130 109M221 109L221 129L306 129L306 109L221 109M312 109L312 129L397 129L397 109L312 109M403 109L403 129L488 129L488 109L403 109M494 109L494 129L579 129L579 109L494 109M585 109L585 129L670 129L670 109L585 109z"/>
<path style="fill:#241f23; stroke:none;" d="M676 109L676 129L761 129L761 109L676 109z"/>
<path style="fill:#211c20; stroke:none;" d="M767 109L767 129L852 129L852 109L767 109M858 109L858 129L943 129L943 109L858 109z"/>
<path style="fill:#241f23; stroke:none;" d="M949 109L949 129L1034 129L1034 109L949 109z"/>
<path style="fill:#211c20; stroke:none;" d="M1040 109L1040 129L1125 129L1125 109L1040 109M1131 109L1131 129L1216 129L1216 109L1131 109M1222 109L1222 129L1307 129L1307 109L1222 109M1313 109L1313 129L1398 129L1398 109L1313 109M1404 109L1404 129L1489 129L1489 109L1404 109M1495 109L1495 129L1580 129L1580 109L1495 109M1586 109L1586 129L1671 129L1671 109L1586 109M1677 109L1677 129L1762 129L1762 109L1677 109M1768 109L1768 129L1853 129L1853 109L1768 109z"/>
<path style="fill:#241f23; stroke:none;" d="M1859 109L1859 129L1944 129L1944 109L1859 109z"/>
<path style="fill:#252125; stroke:none;" d="M7 136L7 143L33 143L33 136L7 136M39 136L39 143L124 143L124 136L39 136z"/>
<path style="fill:#272327; stroke:none;" d="M130 136L130 143L215 143L215 136L130 136z"/>
<path style="fill:#252125; stroke:none;" d="M221 136L221 143L306 143L306 136L221 136M312 136L312 143L397 143L397 136L312 136M403 136L403 143L488 143L488 136L403 136z"/>
<path style="fill:#272327; stroke:none;" d="M494 136L494 143L579 143L579 136L494 136z"/>
<path style="fill:#252125; stroke:none;" d="M585 136L585 143L670 143L670 136L585 136M676 136L676 143L761 143L761 136L676 136M767 136L767 143L852 143L852 136L767 136M858 136L858 143L943 143L943 136L858 136M949 136L949 143L1034 143L1034 136L949 136M1040 136L1040 143L1125 143L1125 136L1040 136z"/>
<path style="fill:#272327; stroke:none;" d="M1131 136L1131 143L1216 143L1216 136L1131 136M1222 136L1222 143L1307 143L1307 136L1222 136z"/>
<path style="fill:#252125; stroke:none;" d="M1313 136L1313 143L1398 143L1398 136L1313 136z"/>
<path style="fill:#272327; stroke:none;" d="M1404 136L1404 143L1489 143L1489 136L1404 136z"/>
<path style="fill:#252125; stroke:none;" d="M1495 136L1495 143L1580 143L1580 136L1495 136M1586 136L1586 143L1671 143L1671 136L1586 136M1677 136L1677 143L1762 143L1762 136L1677 136M1768 136L1768 143L1853 143L1853 136L1768 136z"/>
<path style="fill:#272327; stroke:none;" d="M1859 136L1859 143L1944 143L1944 136L1859 136z"/>
<path style="fill:#211c20; stroke:none;" d="M7 143L7 162L33 162L33 143L7 143M39 143L39 162L124 162L124 143L39 143z"/>
<path style="fill:#241f23; stroke:none;" d="M130 143L130 162L215 162L215 143L130 143z"/>
<path style="fill:#211c20; stroke:none;" d="M221 143L221 162L306 162L306 143L221 143M312 143L312 162L397 162L397 143L312 143M403 143L403 162L488 162L488 143L403 143z"/>
<path style="fill:#241f23; stroke:none;" d="M494 143L494 162L579 162L579 143L494 143z"/>
<path style="fill:#211c20; stroke:none;" d="M585 143L585 162L670 162L670 143L585 143M676 143L676 162L761 162L761 143L676 143M767 143L767 162L852 162L852 143L767 143M858 143L858 162L943 162L943 143L858 143M949 143L949 162L1034 162L1034 143L949 143M1040 143L1040 162L1125 162L1125 143L1040 143z"/>
<path style="fill:#241f23; stroke:none;" d="M1131 143L1131 162L1216 162L1216 143L1131 143M1222 143L1222 162L1307 162L1307 143L1222 143z"/>
<path style="fill:#211c20; stroke:none;" d="M1313 143L1313 162L1398 162L1398 143L1313 143z"/>
<path style="fill:#241f23; stroke:none;" d="M1404 143L1404 162L1489 162L1489 143L1404 143z"/>
<path style="fill:#211c20; stroke:none;" d="M1495 143L1495 162L1580 162L1580 143L1495 143M1586 143L1586 162L1671 162L1671 143L1586 143M1677 143L1677 162L1762 162L1762 143L1677 143M1768 143L1768 162L1853 162L1853 143L1768 143z"/>
<path style="fill:#241f23; stroke:none;" d="M1859 143L1859 162L1944 162L1944 143L1859 143z"/>
<path style="fill:#272327; stroke:none;" d="M7 169L7 175L33 175L33 169L7 169z"/>
<path style="fill:#241f23; stroke:none;" d="M39 169L39 175L124 175L124 169L39 169M130 169L130 175L215 175L215 169L130 169z"/>
<path style="fill:#252125; stroke:none;" d="M221 169L221 175L306 175L306 169L221 169z"/>
<path style="fill:#241f23; stroke:none;" d="M312 169L312 175L397 175L397 169L312 169z"/>
<path style="fill:#272327; stroke:none;" d="M403 169L403 175L488 175L488 169L403 169M494 169L494 175L579 175L579 169L494 169z"/>
<path style="fill:#241f23; stroke:none;" d="M585 169L585 175L670 175L670 169L585 169z"/>
<path style="fill:#272327; stroke:none;" d="M676 169L676 175L761 175L761 169L676 169z"/>
<path style="fill:#241f23; stroke:none;" d="M767 169L767 175L852 175L852 169L767 169M858 169L858 175L943 175L943 169L858 169M949 169L949 175L1034 175L1034 169L949 169z"/>
<path style="fill:#272327; stroke:none;" d="M1040 169L1040 175L1125 175L1125 169L1040 169z"/>
<path style="fill:#241f23; stroke:none;" d="M1131 169L1131 175L1216 175L1216 169L1131 169M1222 169L1222 175L1307 175L1307 169L1222 169z"/>
<path style="fill:#252125; stroke:none;" d="M1313 169L1313 175L1398 175L1398 169L1313 169z"/>
<path style="fill:#241f23; stroke:none;" d="M1404 169L1404 175L1489 175L1489 169L1404 169z"/>
<path style="fill:#252125; stroke:none;" d="M1495 169L1495 175L1580 175L1580 169L1495 169M1586 169L1586 175L1671 175L1671 169L1586 169z"/>
<path style="fill:#272327; stroke:none;" d="M1677 169L1677 175L1762 175L1762 169L1677 169z"/>
<path style="fill:#241f23; stroke:none;" d="M1768 169L1768 175L1853 175L1853 169L1768 169M1859 169L1859 175L1944 175L1944 169L1859 169M7 175L7 195L33 195L33 175L7 175z"/>
<path style="fill:#211c20; stroke:none;" d="M39 175L39 195L124 195L124 175L39 175M130 175L130 195L215 195L215 175L130 175M221 175L221 195L306 195L306 175L221 175M312 175L312 195L397 195L397 175L312 175z"/>
<path style="fill:#241f23; stroke:none;" d="M403 175L403 195L488 195L488 175L403 175M494 175L494 195L579 195L579 175L494 175z"/>
<path style="fill:#211c20; stroke:none;" d="M585 175L585 195L670 195L670 175L585 175z"/>
<path style="fill:#241f23; stroke:none;" d="M676 175L676 195L761 195L761 175L676 175z"/>
<path style="fill:#211c20; stroke:none;" d="M767 175L767 195L852 195L852 175L767 175M858 175L858 195L943 195L943 175L858 175M949 175L949 195L1034 195L1034 175L949 175z"/>
<path style="fill:#241f23; stroke:none;" d="M1040 175L1040 195L1125 195L1125 175L1040 175z"/>
<path style="fill:#211c20; stroke:none;" d="M1131 175L1131 195L1216 195L1216 175L1131 175M1222 175L1222 195L1307 195L1307 175L1222 175M1313 175L1313 195L1398 195L1398 175L1313 175M1404 175L1404 195L1489 195L1489 175L1404 175M1495 175L1495 195L1580 195L1580 175L1495 175M1586 175L1586 195L1671 195L1671 175L1586 175z"/>
<path style="fill:#241f23; stroke:none;" d="M1677 175L1677 195L1762 195L1762 175L1677 175z"/>
<path style="fill:#211c20; stroke:none;" d="M1768 175L1768 195L1853 195L1853 175L1768 175M1859 175L1859 195L1944 195L1944 175L1859 175z"/>
<path style="fill:#272327; stroke:none;" d="M7 201L7 208L33 208L33 201L7 201z"/>
<path style="fill:#241f23; stroke:none;" d="M39 201L39 208L124 208L124 201L39 201z"/>
<path style="fill:#272327; stroke:none;" d="M130 201L130 208L215 208L215 201L130 201z"/>
<path style="fill:#252125; stroke:none;" d="M221 201L221 208L306 208L306 201L221 201M312 201L312 208L397 208L397 201L312 201z"/>
<path style="fill:#241f23; stroke:none;" d="M403 201L403 208L488 208L488 201L403 201z"/>
<path style="fill:#252125; stroke:none;" d="M494 201L494 208L579 208L579 201L494 201z"/>
<path style="fill:#241f23; stroke:none;" d="M585 201L585 208L670 208L670 201L585 201M676 201L676 208L761 208L761 201L676 201z"/>
<path style="fill:#272327; stroke:none;" d="M767 201L767 208L852 208L852 201L767 201M858 201L858 208L943 208L943 201L858 201z"/>
<path style="fill:#241f23; stroke:none;" d="M949 201L949 208L1034 208L1034 201L949 201M1040 201L1040 208L1125 208L1125 201L1040 201M1131 201L1131 208L1216 208L1216 201L1131 201z"/>
<path style="fill:#272327; stroke:none;" d="M1222 201L1222 208L1307 208L1307 201L1222 201M1313 201L1313 208L1398 208L1398 201L1313 201z"/>
<path style="fill:#252125; stroke:none;" d="M1404 201L1404 208L1489 208L1489 201L1404 201M1495 201L1495 208L1580 208L1580 201L1495 201z"/>
<path style="fill:#272327; stroke:none;" d="M1586 201L1586 208L1671 208L1671 201L1586 201z"/>
<path style="fill:#241f23; stroke:none;" d="M1677 201L1677 208L1762 208L1762 201L1677 201z"/>
<path style="fill:#272327; stroke:none;" d="M1768 201L1768 208L1853 208L1853 201L1768 201z"/>
<path style="fill:#241f23; stroke:none;" d="M1859 201L1859 208L1944 208L1944 201L1859 201M7 208L7 227L33 227L33 208L7 208z"/>
<path style="fill:#211c20; stroke:none;" d="M39 208L39 227L124 227L124 208L39 208z"/>
<path style="fill:#241f23; stroke:none;" d="M130 208L130 227L215 227L215 208L130 208z"/>
<path style="fill:#211c20; stroke:none;" d="M221 208L221 227L306 227L306 208L221 208M312 208L312 227L397 227L397 208L312 208M403 208L403 227L488 227L488 208L403 208M494 208L494 227L579 227L579 208L494 208M585 208L585 227L670 227L670 208L585 208M676 208L676 227L761 227L761 208L676 208z"/>
<path style="fill:#241f23; stroke:none;" d="M767 208L767 227L852 227L852 208L767 208M858 208L858 227L943 227L943 208L858 208z"/>
<path style="fill:#211c20; stroke:none;" d="M949 208L949 227L1034 227L1034 208L949 208M1040 208L1040 227L1125 227L1125 208L1040 208M1131 208L1131 227L1216 227L1216 208L1131 208z"/>
<path style="fill:#241f23; stroke:none;" d="M1222 208L1222 227L1307 227L1307 208L1222 208M1313 208L1313 227L1398 227L1398 208L1313 208z"/>
<path style="fill:#211c20; stroke:none;" d="M1404 208L1404 227L1489 227L1489 208L1404 208M1495 208L1495 227L1580 227L1580 208L1495 208z"/>
<path style="fill:#241f23; stroke:none;" d="M1586 208L1586 227L1671 227L1671 208L1586 208z"/>
<path style="fill:#211c20; stroke:none;" d="M1677 208L1677 227L1762 227L1762 208L1677 208z"/>
<path style="fill:#241f23; stroke:none;" d="M1768 208L1768 227L1853 227L1853 208L1768 208z"/>
<path style="fill:#211c20; stroke:none;" d="M1859 208L1859 227L1944 227L1944 208L1859 208z"/>
<path style="fill:#241f23; stroke:none;" d="M7 234L7 240L33 240L33 234L7 234z"/>
<path style="fill:#272327; stroke:none;" d="M39 234L39 240L124 240L124 234L39 234z"/>
<path style="fill:#252125; stroke:none;" d="M130 234L130 240L215 240L215 234L130 234z"/>
<path style="fill:#241f23; stroke:none;" d="M221 234L221 240L306 240L306 234L221 234z"/>
<path style="fill:#252125; stroke:none;" d="M312 234L312 240L397 240L397 234L312 234M403 234L403 240L488 240L488 234L403 234z"/>
<path style="fill:#241f23; stroke:none;" d="M494 234L494 240L579 240L579 234L494 234M585 234L585 240L670 240L670 234L585 234z"/>
<path style="fill:#272327; stroke:none;" d="M676 234L676 240L761 240L761 234L676 234z"/>
<path style="fill:#241f23; stroke:none;" d="M767 234L767 240L852 240L852 234L767 234M858 234L858 240L943 240L943 234L858 234z"/>
<path style="fill:#272327; stroke:none;" d="M949 234L949 240L1034 240L1034 234L949 234z"/>
<path style="fill:#241f23; stroke:none;" d="M1040 234L1040 240L1125 240L1125 234L1040 234z"/>
<path style="fill:#252125; stroke:none;" d="M1131 234L1131 240L1216 240L1216 234L1131 234z"/>
<path style="fill:#241f23; stroke:none;" d="M1222 234L1222 240L1307 240L1307 234L1222 234M1313 234L1313 240L1398 240L1398 234L1313 234z"/>
<path style="fill:#252125; stroke:none;" d="M1404 234L1404 240L1489 240L1489 234L1404 234z"/>
<path style="fill:#241f23; stroke:none;" d="M1495 234L1495 240L1580 240L1580 234L1495 234z"/>
<path style="fill:#252125; stroke:none;" d="M1586 234L1586 240L1671 240L1671 234L1586 234M1677 234L1677 240L1762 240L1762 234L1677 234M1768 234L1768 240L1853 240L1853 234L1768 234z"/>
<path style="fill:#272327; stroke:none;" d="M1859 234L1859 240L1944 240L1944 234L1859 234z"/>
<path style="fill:#211c20; stroke:none;" d="M7 240L7 260L33 260L33 240L7 240z"/>
<path style="fill:#241f23; stroke:none;" d="M39 240L39 260L124 260L124 240L39 240z"/>
<path style="fill:#211c20; stroke:none;" d="M130 240L130 260L215 260L215 240L130 240M221 240L221 260L306 260L306 240L221 240M312 240L312 260L397 260L397 240L312 240M403 240L403 260L488 260L488 240L403 240M494 240L494 260L579 260L579 240L494 240M585 240L585 260L670 260L670 240L585 240z"/>
<path style="fill:#241f23; stroke:none;" d="M676 240L676 260L761 260L761 240L676 240z"/>
<path style="fill:#211c20; stroke:none;" d="M767 240L767 260L852 260L852 240L767 240M858 240L858 260L943 260L943 240L858 240z"/>
<path style="fill:#241f23; stroke:none;" d="M949 240L949 260L1034 260L1034 240L949 240z"/>
<path style="fill:#211c20; stroke:none;" d="M1040 240L1040 260L1125 260L1125 240L1040 240M1131 240L1131 260L1216 260L1216 240L1131 240M1222 240L1222 260L1307 260L1307 240L1222 240M1313 240L1313 260L1398 260L1398 240L1313 240M1404 240L1404 260L1489 260L1489 240L1404 240M1495 240L1495 260L1580 260L1580 240L1495 240M1586 240L1586 260L1671 260L1671 240L1586 240M1677 240L1677 260L1762 260L1762 240L1677 240M1768 240L1768 260L1853 260L1853 240L1768 240z"/>
<path style="fill:#241f23; stroke:none;" d="M1859 240L1859 260L1944 260L1944 240L1859 240z"/>
<path style="fill:#252125; stroke:none;" d="M7 267L7 274L33 274L33 267L7 267M39 267L39 274L124 274L124 267L39 267z"/>
<path style="fill:#272327; stroke:none;" d="M130 267L130 274L215 274L215 267L130 267z"/>
<path style="fill:#252125; stroke:none;" d="M221 267L221 274L306 274L306 267L221 267M312 267L312 274L397 274L397 267L312 267M403 267L403 274L488 274L488 267L403 267z"/>
<path style="fill:#272327; stroke:none;" d="M494 267L494 274L579 274L579 267L494 267z"/>
<path style="fill:#252125; stroke:none;" d="M585 267L585 274L670 274L670 267L585 267M676 267L676 274L761 274L761 267L676 267M767 267L767 274L852 274L852 267L767 267M858 267L858 274L943 274L943 267L858 267M949 267L949 274L1034 274L1034 267L949 267M1040 267L1040 274L1125 274L1125 267L1040 267z"/>
<path style="fill:#272327; stroke:none;" d="M1131 267L1131 274L1216 274L1216 267L1131 267M1222 267L1222 274L1307 274L1307 267L1222 267z"/>
<path style="fill:#252125; stroke:none;" d="M1313 267L1313 274L1398 274L1398 267L1313 267z"/>
<path style="fill:#272327; stroke:none;" d="M1404 267L1404 274L1489 274L1489 267L1404 267z"/>
<path style="fill:#252125; stroke:none;" d="M1495 267L1495 274L1580 274L1580 267L1495 267M1586 267L1586 274L1671 274L1671 267L1586 267M1677 267L1677 274L1762 274L1762 267L1677 267M1768 267L1768 274L1853 274L1853 267L1768 267z"/>
<path style="fill:#272327; stroke:none;" d="M1859 267L1859 274L1944 274L1944 267L1859 267z"/>
<path style="fill:#211c20; stroke:none;" d="M7 274L7 293L33 293L33 274L7 274M39 274L39 293L124 293L124 274L39 274z"/>
<path style="fill:#241f23; stroke:none;" d="M130 274L130 293L215 293L215 274L130 274z"/>
<path style="fill:#211c20; stroke:none;" d="M221 274L221 293L306 293L306 274L221 274M312 274L312 293L397 293L397 274L312 274M403 274L403 293L488 293L488 274L403 274z"/>
<path style="fill:#241f23; stroke:none;" d="M494 274L494 293L579 293L579 274L494 274z"/>
<path style="fill:#211c20; stroke:none;" d="M585 274L585 293L670 293L670 274L585 274M676 274L676 293L761 293L761 274L676 274M767 274L767 293L852 293L852 274L767 274M858 274L858 293L943 293L943 274L858 274M949 274L949 293L1034 293L1034 274L949 274M1040 274L1040 293L1125 293L1125 274L1040 274z"/>
<path style="fill:#241f23; stroke:none;" d="M1131 274L1131 293L1216 293L1216 274L1131 274M1222 274L1222 293L1307 293L1307 274L1222 274z"/>
<path style="fill:#211c20; stroke:none;" d="M1313 274L1313 293L1398 293L1398 274L1313 274z"/>
<path style="fill:#241f23; stroke:none;" d="M1404 274L1404 293L1489 293L1489 274L1404 274z"/>
<path style="fill:#211c20; stroke:none;" d="M1495 274L1495 293L1580 293L1580 274L1495 274M1586 274L1586 293L1671 293L1671 274L1586 274M1677 274L1677 293L1762 293L1762 274L1677 274M1768 274L1768 293L1853 293L1853 274L1768 274z"/>
<path style="fill:#241f23; stroke:none;" d="M1859 274L1859 293L1944 293L1944 274L1859 274z"/>
<path style="fill:#272327; stroke:none;" d="M7 300L7 306L33 306L33 300L7 300z"/>
<path style="fill:#241f23; stroke:none;" d="M39 300L39 306L124 306L124 300L39 300M130 300L130 306L215 306L215 300L130 300z"/>
<path style="fill:#252125; stroke:none;" d="M221 300L221 306L306 306L306 300L221 300z"/>
<path style="fill:#241f23; stroke:none;" d="M312 300L312 306L397 306L397 300L312 300z"/>
<path style="fill:#272327; stroke:none;" d="M403 300L403 306L488 306L488 300L403 300M494 300L494 306L579 306L579 300L494 300z"/>
<path style="fill:#241f23; stroke:none;" d="M585 300L585 306L670 306L670 300L585 300z"/>
<path style="fill:#272327; stroke:none;" d="M676 300L676 306L761 306L761 300L676 300z"/>
<path style="fill:#241f23; stroke:none;" d="M767 300L767 306L852 306L852 300L767 300M858 300L858 306L943 306L943 300L858 300M949 300L949 306L1034 306L1034 300L949 300z"/>
<path style="fill:#272327; stroke:none;" d="M1040 300L1040 306L1125 306L1125 300L1040 300z"/>
<path style="fill:#241f23; stroke:none;" d="M1131 300L1131 306L1216 306L1216 300L1131 300M1222 300L1222 306L1307 306L1307 300L1222 300z"/>
<path style="fill:#252125; stroke:none;" d="M1313 300L1313 306L1398 306L1398 300L1313 300z"/>
<path style="fill:#241f23; stroke:none;" d="M1404 300L1404 306L1489 306L1489 300L1404 300z"/>
<path style="fill:#252125; stroke:none;" d="M1495 300L1495 306L1580 306L1580 300L1495 300M1586 300L1586 306L1671 306L1671 300L1586 300z"/>
<path style="fill:#272327; stroke:none;" d="M1677 300L1677 306L1762 306L1762 300L1677 300z"/>
<path style="fill:#241f23; stroke:none;" d="M1768 300L1768 306L1853 306L1853 300L1768 300M1859 300L1859 306L1944 306L1944 300L1859 300M7 306L7 326L33 326L33 306L7 306z"/>
<path style="fill:#211c20; stroke:none;" d="M39 306L39 326L124 326L124 306L39 306M130 306L130 326L215 326L215 306L130 306M221 306L221 326L306 326L306 306L221 306M312 306L312 326L397 326L397 306L312 306z"/>
<path style="fill:#241f23; stroke:none;" d="M403 306L403 326L488 326L488 306L403 306M494 306L494 326L579 326L579 306L494 306z"/>
<path style="fill:#211c20; stroke:none;" d="M585 306L585 326L670 326L670 306L585 306z"/>
<path style="fill:#241f23; stroke:none;" d="M676 306L676 326L761 326L761 306L676 306z"/>
<path style="fill:#211c20; stroke:none;" d="M767 306L767 326L852 326L852 306L767 306M858 306L858 326L943 326L943 306L858 306M949 306L949 326L1034 326L1034 306L949 306z"/>
<path style="fill:#241f23; stroke:none;" d="M1040 306L1040 326L1125 326L1125 306L1040 306z"/>
<path style="fill:#211c20; stroke:none;" d="M1131 306L1131 326L1216 326L1216 306L1131 306M1222 306L1222 326L1307 326L1307 306L1222 306M1313 306L1313 326L1398 326L1398 306L1313 306M1404 306L1404 326L1489 326L1489 306L1404 306M1495 306L1495 326L1580 326L1580 306L1495 306M1586 306L1586 326L1671 326L1671 306L1586 306z"/>
<path style="fill:#241f23; stroke:none;" d="M1677 306L1677 326L1762 326L1762 306L1677 306z"/>
<path style="fill:#211c20; stroke:none;" d="M1768 306L1768 326L1853 326L1853 306L1768 306M1859 306L1859 326L1944 326L1944 306L1859 306z"/>
<path style="fill:#272327; stroke:none;" d="M7 332L7 339L33 339L33 332L7 332z"/>
<path style="fill:#241f23; stroke:none;" d="M39 332L39 339L124 339L124 332L39 332z"/>
<path style="fill:#272327; stroke:none;" d="M130 332L130 339L215 339L215 332L130 332z"/>
<path style="fill:#252125; stroke:none;" d="M221 332L221 339L306 339L306 332L221 332M312 332L312 339L397 339L397 332L312 332z"/>
<path style="fill:#241f23; stroke:none;" d="M403 332L403 339L488 339L488 332L403 332z"/>
<path style="fill:#252125; stroke:none;" d="M494 332L494 339L579 339L579 332L494 332z"/>
<path style="fill:#241f23; stroke:none;" d="M585 332L585 339L670 339L670 332L585 332M676 332L676 339L761 339L761 332L676 332z"/>
<path style="fill:#272327; stroke:none;" d="M767 332L767 339L852 339L852 332L767 332M858 332L858 339L943 339L943 332L858 332z"/>
<path style="fill:#241f23; stroke:none;" d="M949 332L949 339L1034 339L1034 332L949 332M1040 332L1040 339L1125 339L1125 332L1040 332M1131 332L1131 339L1216 339L1216 332L1131 332z"/>
<path style="fill:#272327; stroke:none;" d="M1222 332L1222 339L1307 339L1307 332L1222 332M1313 332L1313 339L1398 339L1398 332L1313 332z"/>
<path style="fill:#252125; stroke:none;" d="M1404 332L1404 339L1489 339L1489 332L1404 332M1495 332L1495 339L1580 339L1580 332L1495 332z"/>
<path style="fill:#272327; stroke:none;" d="M1586 332L1586 339L1671 339L1671 332L1586 332z"/>
<path style="fill:#241f23; stroke:none;" d="M1677 332L1677 339L1762 339L1762 332L1677 332z"/>
<path style="fill:#272327; stroke:none;" d="M1768 332L1768 339L1853 339L1853 332L1768 332z"/>
<path style="fill:#241f23; stroke:none;" d="M1859 332L1859 339L1944 339L1944 332L1859 332M7 339L7 358L33 358L33 339L7 339z"/>
<path style="fill:#211c20; stroke:none;" d="M39 339L39 358L124 358L124 339L39 339z"/>
<path style="fill:#241f23; stroke:none;" d="M130 339L130 358L215 358L215 339L130 339z"/>
<path style="fill:#211c20; stroke:none;" d="M221 339L221 358L306 358L306 339L221 339M312 339L312 358L397 358L397 339L312 339M403 339L403 358L488 358L488 339L403 339M494 339L494 358L579 358L579 339L494 339M585 339L585 358L670 358L670 339L585 339M676 339L676 358L761 358L761 339L676 339z"/>
<path style="fill:#241f23; stroke:none;" d="M767 339L767 358L852 358L852 339L767 339M858 339L858 358L943 358L943 339L858 339z"/>
<path style="fill:#211c20; stroke:none;" d="M949 339L949 358L1034 358L1034 339L949 339M1040 339L1040 358L1125 358L1125 339L1040 339M1131 339L1131 358L1216 358L1216 339L1131 339z"/>
<path style="fill:#241f23; stroke:none;" d="M1222 339L1222 358L1307 358L1307 339L1222 339M1313 339L1313 358L1398 358L1398 339L1313 339z"/>
<path style="fill:#211c20; stroke:none;" d="M1404 339L1404 358L1489 358L1489 339L1404 339M1495 339L1495 358L1580 358L1580 339L1495 339z"/>
<path style="fill:#241f23; stroke:none;" d="M1586 339L1586 358L1671 358L1671 339L1586 339z"/>
<path style="fill:#211c20; stroke:none;" d="M1677 339L1677 358L1762 358L1762 339L1677 339z"/>
<path style="fill:#241f23; stroke:none;" d="M1768 339L1768 358L1853 358L1853 339L1768 339z"/>
<path style="fill:#211c20; stroke:none;" d="M1859 339L1859 358L1944 358L1944 339L1859 339z"/>
<path style="fill:#241f23; stroke:none;" d="M7 365L7 371L33 371L33 365L7 365z"/>
<path style="fill:#272327; stroke:none;" d="M39 365L39 371L124 371L124 365L39 365z"/>
<path style="fill:#252125; stroke:none;" d="M130 365L130 371L215 371L215 365L130 365z"/>
<path style="fill:#241f23; stroke:none;" d="M221 365L221 371L306 371L306 365L221 365z"/>
<path style="fill:#252125; stroke:none;" d="M312 365L312 371L397 371L397 365L312 365M403 365L403 371L488 371L488 365L403 365z"/>
<path style="fill:#241f23; stroke:none;" d="M494 365L494 371L579 371L579 365L494 365M585 365L585 371L670 371L670 365L585 365z"/>
<path style="fill:#272327; stroke:none;" d="M676 365L676 371L761 371L761 365L676 365z"/>
<path style="fill:#241f23; stroke:none;" d="M767 365L767 371L852 371L852 365L767 365M858 365L858 371L943 371L943 365L858 365z"/>
<path style="fill:#272327; stroke:none;" d="M949 365L949 371L1034 371L1034 365L949 365z"/>
<path style="fill:#241f23; stroke:none;" d="M1040 365L1040 371L1125 371L1125 365L1040 365z"/>
<path style="fill:#252125; stroke:none;" d="M1131 365L1131 371L1216 371L1216 365L1131 365z"/>
<path style="fill:#241f23; stroke:none;" d="M1222 365L1222 371L1307 371L1307 365L1222 365M1313 365L1313 371L1398 371L1398 365L1313 365z"/>
<path style="fill:#252125; stroke:none;" d="M1404 365L1404 371L1489 371L1489 365L1404 365z"/>
<path style="fill:#241f23; stroke:none;" d="M1495 365L1495 371L1580 371L1580 365L1495 365z"/>
<path style="fill:#252125; stroke:none;" d="M1586 365L1586 371L1671 371L1671 365L1586 365M1677 365L1677 371L1762 371L1762 365L1677 365M1768 365L1768 371L1853 371L1853 365L1768 365z"/>
<path style="fill:#272327; stroke:none;" d="M1859 365L1859 371L1944 371L1944 365L1859 365z"/>
<path style="fill:#211c20; stroke:none;" d="M7 371L7 391L33 391L33 371L7 371z"/>
<path style="fill:#241f23; stroke:none;" d="M39 371L39 391L124 391L124 371L39 371z"/>
<path style="fill:#211c20; stroke:none;" d="M130 371L130 391L215 391L215 371L130 371M221 371L221 391L306 391L306 371L221 371M312 371L312 391L397 391L397 371L312 371M403 371L403 391L488 391L488 371L403 371M494 371L494 391L579 391L579 371L494 371M585 371L585 391L670 391L670 371L585 371z"/>
<path style="fill:#241f23; stroke:none;" d="M676 371L676 391L761 391L761 371L676 371z"/>
<path style="fill:#211c20; stroke:none;" d="M767 371L767 391L852 391L852 371L767 371M858 371L858 391L943 391L943 371L858 371z"/>
<path style="fill:#241f23; stroke:none;" d="M949 371L949 391L1034 391L1034 371L949 371z"/>
<path style="fill:#211c20; stroke:none;" d="M1040 371L1040 391L1125 391L1125 371L1040 371M1131 371L1131 391L1216 391L1216 371L1131 371M1222 371L1222 391L1307 391L1307 371L1222 371M1313 371L1313 391L1398 391L1398 371L1313 371M1404 371L1404 391L1489 391L1489 371L1404 371M1495 371L1495 391L1580 391L1580 371L1495 371M1586 371L1586 391L1671 391L1671 371L1586 371M1677 371L1677 391L1762 391L1762 371L1677 371M1768 371L1768 391L1853 391L1853 371L1768 371z"/>
<path style="fill:#241f23; stroke:none;" d="M1859 371L1859 391L1944 391L1944 371L1859 371z"/>
</svg>